<svg xmlns="http://www.w3.org/2000/svg" viewBox="0 0 560 140" width="560" height="140" role="img" aria-label="RealHands">
  <defs>
    <linearGradient id="lk" x1="0" y1="0" x2="1" y2="1">
      <stop offset="0" stop-color="#2bd06e"/>
      <stop offset="0.55" stop-color="#10a36f"/>
      <stop offset="1" stop-color="#075e54"/>
    </linearGradient>
  </defs>

  <!-- Mark: two workers digging -->
  <g transform="translate(6 6)">
    <rect x="8" y="8" width="112" height="112" rx="30" fill="url(#lk)"/>
    <ellipse cx="46" cy="34" rx="38" ry="22" fill="#ffffff" opacity="0.10"/>
    <path d="M16 104 Q64 90 112 104 L112 116 Q64 122 16 116 Z" fill="#063f39" opacity="0.30"/>
    <ellipse cx="64" cy="101" rx="22" ry="8" fill="#FFD79A"/>
    <ellipse cx="64" cy="99" rx="13" ry="5" fill="#FFE9C7"/>
    <g fill="#ffffff">
      <g transform="translate(34 44)">
        <rect x="-2" y="30" width="6" height="18" rx="3" transform="rotate(-7 1 39)"/>
        <rect x="6" y="31" width="6" height="17" rx="3" transform="rotate(9 9 39)"/>
        <rect x="-3" y="14" width="13" height="24" rx="6.5" transform="rotate(20 3 26)"/>
        <circle cx="11" cy="9" r="7.5"/>
        <rect x="7" y="14" width="5.5" height="20" rx="2.75" transform="rotate(46 10 16)"/>
        <ellipse cx="11" cy="3" rx="10" ry="5.5" fill="#FFC107"/>
        <rect x="0" y="3" width="22" height="3.6" rx="1.8" fill="#FFC107"/>
        <rect x="18" y="12" width="4" height="34" rx="2" transform="rotate(33 20 29)" fill="#eef3f1"/>
        <path d="M33 44 l9 5 -3 10 -9 -5 z" transform="rotate(33 36 50)" fill="#eef3f1"/>
      </g>
      <g transform="translate(94 44) scale(-1,1)">
        <rect x="-2" y="30" width="6" height="18" rx="3" transform="rotate(-7 1 39)"/>
        <rect x="6" y="31" width="6" height="17" rx="3" transform="rotate(9 9 39)"/>
        <rect x="-3" y="14" width="13" height="24" rx="6.5" transform="rotate(20 3 26)"/>
        <circle cx="11" cy="9" r="7.5"/>
        <rect x="7" y="14" width="5.5" height="20" rx="2.75" transform="rotate(46 10 16)"/>
        <ellipse cx="11" cy="3" rx="10" ry="5.5" fill="#FFC107"/>
        <rect x="0" y="3" width="22" height="3.6" rx="1.8" fill="#FFC107"/>
        <rect x="18" y="12" width="4" height="34" rx="2" transform="rotate(33 20 29)" fill="#eef3f1"/>
        <path d="M33 44 l9 5 -3 10 -9 -5 z" transform="rotate(33 36 50)" fill="#eef3f1"/>
      </g>
    </g>
  </g>

  <!-- Wordmark -->
  <text x="150" y="74" font-family="-apple-system, BlinkMacSystemFont, 'Segoe UI', Roboto, sans-serif" font-size="56" font-weight="800" letter-spacing="-1">
    <tspan fill="#0b3d36">Real</tspan><tspan fill="#10a36f">Hands</tspan>
  </text>
  <text x="152" y="106" font-family="-apple-system, BlinkMacSystemFont, 'Segoe UI', Roboto, sans-serif" font-size="15" font-weight="600" letter-spacing="3" fill="#6b7c79">REAL HANDS FOR REAL WORK</text>
</svg>
